<svg width="58" height="16" viewBox="0 0 58 16" fill="none" xmlns="http://www.w3.org/2000/svg">
<path d="M5 12.0033V0.845962H12.1274V2.81099H7.398V5.36886H11.9675V7.33389H7.398V10.0383H12.1274V12.0033H5Z" fill="white"/>
<path d="M13.7127 3.75687H16.0774V5.26228H16.1707C16.2639 5.02914 16.3838 4.80933 16.5237 4.60949C16.6636 4.40966 16.8301 4.22981 17.03 4.0766C17.2298 3.9234 17.4563 3.79684 17.7161 3.71024C17.9759 3.61699 18.2756 3.57702 18.602 3.57702C18.995 3.57702 19.3614 3.64363 19.6878 3.77685C20.0142 3.91008 20.3006 4.10991 20.5337 4.37635C20.7669 4.6428 20.9534 4.96919 21.0866 5.34888C21.2198 5.72856 21.2864 6.17485 21.2864 6.67444V12.0167H18.9217V6.99417C18.9217 5.92839 18.4555 5.3955 17.5296 5.3955C17.3497 5.3955 17.1699 5.42215 16.9967 5.46878C16.8235 5.5154 16.6636 5.58868 16.5237 5.69525C16.3838 5.79517 16.2773 5.92173 16.1973 6.06828C16.1174 6.21482 16.0774 6.39467 16.0774 6.5945V12.0167H13.7127V3.75687Z" fill="white"/>
<path d="M26.3755 15.3938C25.5895 15.3938 24.9367 15.3472 24.4238 15.2606C23.9109 15.1674 23.5046 15.0408 23.1982 14.8676C22.8917 14.6944 22.6786 14.4946 22.5587 14.2614C22.4388 14.0283 22.3722 13.7685 22.3722 13.4954C22.3722 13.0225 22.5121 12.6694 22.7852 12.4296C23.0649 12.1898 23.4513 12.0033 23.9509 11.8768V11.7835C23.5978 11.6769 23.3181 11.5237 23.1116 11.3306C22.9051 11.1307 22.7985 10.851 22.7985 10.4913C22.7985 10.0849 22.9317 9.78518 23.2048 9.59867C23.4779 9.40549 23.8376 9.25895 24.2839 9.15237V9.05912C23.791 8.81266 23.4113 8.4796 23.1382 8.05329C22.8651 7.62698 22.7319 7.10741 22.7319 6.50125C22.7319 5.54205 23.0583 4.81599 23.7177 4.3164C24.3705 3.82348 25.2498 3.57036 26.3489 3.57036C26.8818 3.57036 27.368 3.63697 27.801 3.76353H30.9051V5.32889H29.5795C29.7061 5.50208 29.7993 5.68193 29.8526 5.88177C29.9059 6.0816 29.9326 6.30142 29.9326 6.54788C29.9326 7.01415 29.846 7.42714 29.6794 7.78684C29.5129 8.14654 29.2664 8.44629 28.9467 8.69942C28.627 8.95254 28.2473 9.13905 27.801 9.26561C27.3614 9.39217 26.8684 9.45878 26.3222 9.45878C26.0758 9.45878 25.8426 9.44546 25.6161 9.41882C25.3897 9.39217 25.1765 9.35221 24.9767 9.29892C24.8568 9.36553 24.7635 9.44546 24.6836 9.53872C24.6037 9.63197 24.5637 9.75853 24.5637 9.90508C24.5637 10.0316 24.597 10.1316 24.6569 10.2115C24.7236 10.2848 24.8102 10.3447 24.9234 10.378C25.0366 10.418 25.1632 10.438 25.3164 10.4513C25.4629 10.4646 25.6228 10.4646 25.7827 10.4646H27.6678C28.254 10.4646 28.7535 10.5246 29.1732 10.6378C29.5862 10.7577 29.9326 10.9176 30.199 11.1307C30.4654 11.3439 30.6586 11.597 30.7719 11.8834C30.8918 12.1699 30.945 12.4896 30.945 12.8426C30.945 13.7152 30.5787 14.3614 29.8393 14.7744C29.1066 15.1873 27.9475 15.4005 26.3689 15.4005L26.3755 15.3938ZM28.7069 13.0092C28.7069 12.796 28.6203 12.6295 28.4538 12.5029C28.2873 12.3764 27.9609 12.3164 27.4813 12.3164H24.6503C24.4371 12.4963 24.3306 12.7227 24.3306 12.9892C24.3306 13.2556 24.4371 13.4555 24.6569 13.622C24.8768 13.7885 25.2431 13.8684 25.7694 13.8684H27.1615C27.7077 13.8684 28.1008 13.7952 28.3472 13.642C28.5937 13.4954 28.7136 13.2823 28.7136 13.0025L28.7069 13.0092ZM26.3222 7.94005C26.8018 7.94005 27.1482 7.82015 27.368 7.58701C27.5878 7.35387 27.6944 7.05412 27.6944 6.69442V6.30808C27.6944 5.94838 27.5878 5.64863 27.368 5.41549C27.1482 5.18235 26.8018 5.06245 26.3222 5.06245C25.8426 5.06245 25.5096 5.18235 25.2964 5.41549C25.0833 5.64863 24.9767 5.94838 24.9767 6.30808V6.69442C24.9767 7.05412 25.0833 7.35387 25.2964 7.58701C25.5096 7.82015 25.8493 7.94005 26.3222 7.94005Z" fill="white"/>
<path d="M32.0841 10.1515H34.7086V5.60866H32.0841V3.75687H37.0733V10.1515H39.5046V12.0033H32.0841V10.1515ZM35.8876 2.70441C35.3547 2.70441 34.9817 2.59784 34.7752 2.37802C34.5687 2.1582 34.4621 1.89842 34.4621 1.58535V1.11907C34.4621 0.799334 34.5687 0.532889 34.7752 0.319734C34.9817 0.106578 35.3547 0 35.8876 0C36.4205 0 36.7935 0.106578 37 0.319734C37.2065 0.532889 37.3131 0.799334 37.3131 1.11907V1.58535C37.3131 1.89176 37.2065 2.1582 37 2.37802C36.7935 2.59784 36.4205 2.70441 35.8876 2.70441Z" fill="white"/>
<path d="M40.5704 3.75687H42.9351V5.26228H43.0283C43.1216 5.02914 43.2415 4.80933 43.3813 4.60949C43.5212 4.40966 43.6878 4.22981 43.8876 4.0766C44.0874 3.9234 44.3139 3.79684 44.5737 3.71024C44.8335 3.61699 45.1332 3.57702 45.4596 3.57702C45.8526 3.57702 46.219 3.64363 46.5454 3.77685C46.8718 3.91008 47.1582 4.10991 47.3913 4.37635C47.6245 4.6428 47.811 4.96919 47.9442 5.34888C48.0774 5.72856 48.1441 6.17485 48.1441 6.67444V12.0167H45.7794V6.99417C45.7794 5.92839 45.3131 5.3955 44.3872 5.3955C44.2073 5.3955 44.0275 5.42215 43.8543 5.46878C43.6811 5.5154 43.5212 5.58868 43.3813 5.69525C43.2415 5.79517 43.1349 5.92173 43.055 6.06828C42.975 6.21482 42.9351 6.39467 42.9351 6.5945V12.0167H40.5704V3.75687Z" fill="white"/>
<path d="M53.5062 12.1965C52.1207 12.1965 51.0683 11.8102 50.3555 11.0441C49.6428 10.2781 49.2831 9.23231 49.2831 7.91341C49.2831 7.24063 49.3764 6.63447 49.5629 6.10158C49.7494 5.56203 50.0158 5.10241 50.3622 4.72939C50.7086 4.34971 51.1282 4.06328 51.6278 3.86345C52.1274 3.66361 52.6803 3.57036 53.2997 3.57036C53.9192 3.57036 54.4721 3.67028 54.965 3.86345C55.4579 4.05662 55.8709 4.34305 56.2107 4.70275C56.5504 5.06245 56.8168 5.50208 57.0033 6.02165C57.1898 6.54122 57.2831 7.11407 57.2831 7.75354V8.45962H51.6411V8.60616C51.6411 9.13905 51.8077 9.56536 52.1341 9.89176C52.4604 10.2182 52.9467 10.378 53.5862 10.378C54.0791 10.378 54.4988 10.2848 54.8518 10.0983C55.2048 9.91174 55.5046 9.66528 55.7644 9.35221L57.0433 10.7444C56.7236 11.1374 56.2773 11.4771 55.6978 11.7702C55.1249 12.0566 54.3922 12.2032 53.5062 12.2032V12.1965ZM53.3131 5.25562C52.8002 5.25562 52.3938 5.41549 52.0874 5.72856C51.781 6.04163 51.6345 6.46794 51.6345 7.00083V7.12739H54.9584V7.00083C54.9584 6.45462 54.8118 6.02831 54.5187 5.7219C54.2256 5.41549 53.826 5.25562 53.3131 5.25562Z" fill="white"/>
</svg>
