<svg width="133" height="25" viewBox="0 0 133 25" fill="none" xmlns="http://www.w3.org/2000/svg">
<path d="M80.5063 12.0033V0.845962H87.6337V2.81099H82.9043V5.36886H87.4739V7.33389H82.9043V10.0383H87.6337V12.0033H80.5063Z" fill="white"/>
<path d="M89.2191 3.75687H91.5838V5.26228H91.677C91.7703 5.02914 91.8902 4.80933 92.0301 4.60949C92.17 4.40966 92.3365 4.22981 92.5363 4.0766C92.7362 3.9234 92.9626 3.79684 93.2224 3.71024C93.4822 3.61699 93.782 3.57702 94.1083 3.57702C94.5014 3.57702 94.8677 3.64363 95.1941 3.77685C95.5205 3.91008 95.8069 4.10991 96.0401 4.37635C96.2732 4.6428 96.4597 4.96919 96.5929 5.34888C96.7262 5.72856 96.7928 6.17485 96.7928 6.67444V12.0167H94.4281V6.99417C94.4281 5.92839 93.9618 5.3955 93.0359 5.3955C92.8561 5.3955 92.6762 5.42215 92.503 5.46878C92.3298 5.5154 92.17 5.58868 92.0301 5.69525C91.8902 5.79517 91.7836 5.92173 91.7037 6.06828C91.6237 6.21482 91.5838 6.39467 91.5838 6.5945V12.0167H89.2191V3.75687Z" fill="white"/>
<path d="M101.882 15.3938C101.096 15.3938 100.443 15.3472 99.9302 15.2606C99.4173 15.1674 99.0109 15.0408 98.7045 14.8676C98.3981 14.6944 98.1849 14.4946 98.065 14.2614C97.9451 14.0283 97.8785 13.7685 97.8785 13.4954C97.8785 13.0225 98.0184 12.6694 98.2915 12.4296C98.5713 12.1898 98.9576 12.0033 99.4572 11.8768V11.7835C99.1042 11.6769 98.8244 11.5237 98.6179 11.3306C98.4114 11.1307 98.3048 10.851 98.3048 10.4913C98.3048 10.0849 98.4381 9.78518 98.7112 9.59867C98.9843 9.40549 99.344 9.25895 99.7903 9.15237V9.05912C99.2973 8.81266 98.9177 8.4796 98.6446 8.05329C98.3715 7.62698 98.2382 7.10741 98.2382 6.50125C98.2382 5.54205 98.5646 4.81599 99.2241 4.3164C99.8769 3.82348 100.756 3.57036 101.855 3.57036C102.388 3.57036 102.874 3.63697 103.307 3.76353H106.411V5.32889H105.086C105.212 5.50208 105.306 5.68193 105.359 5.88177C105.412 6.0816 105.439 6.30142 105.439 6.54788C105.439 7.01415 105.352 7.42714 105.186 7.78684C105.019 8.14654 104.773 8.44629 104.453 8.69942C104.133 8.95254 103.754 9.13905 103.307 9.26561C102.868 9.39217 102.375 9.45878 101.829 9.45878C101.582 9.45878 101.349 9.44546 101.122 9.41882C100.896 9.39217 100.683 9.35221 100.483 9.29892C100.363 9.36553 100.27 9.44546 100.19 9.53872C100.11 9.63197 100.07 9.75853 100.07 9.90508C100.07 10.0316 100.103 10.1316 100.163 10.2115C100.23 10.2848 100.317 10.3447 100.43 10.378C100.543 10.418 100.67 10.438 100.823 10.4513C100.969 10.4646 101.129 10.4646 101.289 10.4646H103.174C103.76 10.4646 104.26 10.5246 104.68 10.6378C105.093 10.7577 105.439 10.9176 105.705 11.1307C105.972 11.3439 106.165 11.597 106.278 11.8834C106.398 12.1699 106.451 12.4896 106.451 12.8426C106.451 13.7152 106.085 14.3614 105.346 14.7744C104.613 15.1873 103.454 15.4005 101.875 15.4005L101.882 15.3938ZM104.213 13.0092C104.213 12.796 104.127 12.6295 103.96 12.5029C103.794 12.3764 103.467 12.3164 102.988 12.3164H100.157C99.9435 12.4963 99.8369 12.7227 99.8369 12.9892C99.8369 13.2556 99.9435 13.4555 100.163 13.622C100.383 13.7885 100.749 13.8684 101.276 13.8684H102.668C103.214 13.8684 103.607 13.7952 103.854 13.642C104.1 13.4954 104.22 13.2823 104.22 13.0025L104.213 13.0092ZM101.829 7.94005C102.308 7.94005 102.655 7.82015 102.874 7.58701C103.094 7.35387 103.201 7.05412 103.201 6.69442V6.30808C103.201 5.94838 103.094 5.64863 102.874 5.41549C102.655 5.18235 102.308 5.06245 101.829 5.06245C101.349 5.06245 101.016 5.18235 100.803 5.41549C100.59 5.64863 100.483 5.94838 100.483 6.30808V6.69442C100.483 7.05412 100.59 7.35387 100.803 7.58701C101.016 7.82015 101.356 7.94005 101.829 7.94005Z" fill="white"/>
<path d="M107.59 10.1515H110.215V5.60866H107.59V3.75687H112.58V10.1515H115.011V12.0033H107.59V10.1515ZM111.394 2.70441C110.861 2.70441 110.488 2.59784 110.282 2.37802C110.075 2.1582 109.968 1.89842 109.968 1.58535V1.11907C109.968 0.799334 110.075 0.532889 110.282 0.319734C110.488 0.106578 110.861 0 111.394 0C111.927 0 112.3 0.106578 112.506 0.319734C112.713 0.532889 112.819 0.799334 112.819 1.11907V1.58535C112.819 1.89176 112.713 2.1582 112.506 2.37802C112.3 2.59784 111.927 2.70441 111.394 2.70441Z" fill="white"/>
<path d="M116.077 3.75687H118.441V5.26228H118.535C118.628 5.02914 118.748 4.80933 118.888 4.60949C119.028 4.40966 119.194 4.22981 119.394 4.0766C119.594 3.9234 119.82 3.79684 120.08 3.71024C120.34 3.61699 120.64 3.57702 120.966 3.57702C121.359 3.57702 121.725 3.64363 122.052 3.77685C122.378 3.91008 122.665 4.10991 122.898 4.37635C123.131 4.6428 123.317 4.96919 123.451 5.34888C123.584 5.72856 123.65 6.17485 123.65 6.67444V12.0167H121.286V6.99417C121.286 5.92839 120.819 5.3955 119.894 5.3955C119.714 5.3955 119.534 5.42215 119.361 5.46878C119.187 5.5154 119.028 5.58868 118.888 5.69525C118.748 5.79517 118.641 5.92173 118.561 6.06828C118.481 6.21482 118.441 6.39467 118.441 6.5945V12.0167H116.077V3.75687Z" fill="white"/>
<path d="M129.013 12.1965C127.627 12.1965 126.575 11.8102 125.862 11.0441C125.149 10.2781 124.789 9.23231 124.789 7.91341C124.789 7.24063 124.883 6.63447 125.069 6.10158C125.256 5.56203 125.522 5.10241 125.869 4.72939C126.215 4.34971 126.635 4.06328 127.134 3.86345C127.634 3.66361 128.187 3.57036 128.806 3.57036C129.426 3.57036 129.978 3.67028 130.471 3.86345C130.964 4.05662 131.377 4.34305 131.717 4.70275C132.057 5.06245 132.323 5.50208 132.51 6.02165C132.696 6.54122 132.789 7.11407 132.789 7.75354V8.45962H127.147V8.60616C127.147 9.13905 127.314 9.56536 127.64 9.89176C127.967 10.2182 128.453 10.378 129.093 10.378C129.585 10.378 130.005 10.2848 130.358 10.0983C130.711 9.91174 131.011 9.66528 131.271 9.35221L132.55 10.7444C132.23 11.1374 131.784 11.4771 131.204 11.7702C130.631 12.0566 129.899 12.2032 129.013 12.2032V12.1965ZM128.819 5.25562C128.307 5.25562 127.9 5.41549 127.594 5.72856C127.287 6.04163 127.141 6.46794 127.141 7.00083V7.12739H130.465V7.00083C130.465 6.45462 130.318 6.02831 130.025 5.7219C129.732 5.41549 129.332 5.25562 128.819 5.25562Z" fill="white"/>
<path d="M0 19.9367L3.19734 16.7061C4.70275 18.398 6.62115 19.2639 8.79267 19.2639C11.1574 19.2639 12.3097 18.2115 12.3097 16.5795C12.3097 15.3672 11.7968 14.4679 9.71857 14.1815L7.51374 13.8951C2.81099 13.2889 0.672773 10.9842 0.672773 7.24063C0.672773 3.24396 3.8035 0.45961 9.05246 0.45961C12.4097 0.45961 14.9675 1.57868 16.7927 3.597L13.562 6.86094C12.5096 5.61531 11.0708 4.74937 8.76603 4.74937C6.5945 4.74937 5.53539 5.58201 5.53539 6.92089C5.53539 8.45295 6.33472 9.03247 8.18651 9.3189L10.3913 9.67194C14.9675 10.4047 17.1724 12.4563 17.1724 16.2931C17.1724 20.5762 14.035 23.5537 8.47294 23.5537C4.56953 23.5537 1.9184 22.0483 0 19.9434V19.9367Z" fill="white"/>
<path d="M24.8127 23.1607V14.4346L17.1724 0.845955H22.6078L27.4038 9.73854H27.4704L32.0733 0.845955H37.3489L29.7086 14.4013V23.1607H24.8127Z" fill="white"/>
<path d="M45.3089 12.6095L43.164 8.13322H43.0708V23.1607H38.4946V0.845955H43.8035L49.9117 11.3972L52.0566 15.8734H52.1499V0.845955H56.7261V23.1607H51.4172L45.3089 12.6095Z" fill="white"/>
<path d="M69.8951 5.16236V23.1674H65.0325V5.16236H58.9908V0.845955H75.9367V5.16236H69.8951Z" fill="white"/>
</svg>
