<svg width="76" height="25" viewBox="0 0 76 25" fill="none" xmlns="http://www.w3.org/2000/svg">
<path d="M0 19.9367L3.19734 16.7061C4.70275 18.398 6.62115 19.2639 8.79267 19.2639C11.1574 19.2639 12.3097 18.2115 12.3097 16.5795C12.3097 15.3672 11.7968 14.4679 9.71857 14.1815L7.51374 13.8951C2.81099 13.2889 0.672773 10.9842 0.672773 7.24063C0.672773 3.24396 3.8035 0.45961 9.05246 0.45961C12.4097 0.45961 14.9675 1.57868 16.7927 3.597L13.562 6.86094C12.5096 5.61531 11.0708 4.74937 8.76603 4.74937C6.5945 4.74937 5.53539 5.58201 5.53539 6.92089C5.53539 8.45295 6.33472 9.03247 8.18651 9.3189L10.3913 9.67194C14.9675 10.4047 17.1724 12.4563 17.1724 16.2931C17.1724 20.5762 14.035 23.5537 8.47294 23.5537C4.56953 23.5537 1.9184 22.0483 0 19.9434V19.9367Z" fill="white"/>
<path d="M24.8127 23.1607V14.4346L17.1724 0.845955H22.6078L27.4038 9.73854H27.4704L32.0733 0.845955H37.3489L29.7086 14.4013V23.1607H24.8127Z" fill="white"/>
<path d="M45.3089 12.6095L43.164 8.13322H43.0708V23.1607H38.4946V0.845955H43.8035L49.9117 11.3972L52.0566 15.8734H52.1499V0.845955H56.7261V23.1607H51.4172L45.3089 12.6095Z" fill="white"/>
<path d="M69.8951 5.16236V23.1674H65.0325V5.16236H58.9908V0.845955H75.9367V5.16236H69.8951Z" fill="white"/>
</svg>
